<svg width="44" height="44" viewBox="0 0 44 44" fill="none" xmlns="http://www.w3.org/2000/svg">
<path d="M15.308 27.2534C15.7828 28.6142 16.465 29.6954 17.3546 30.4969C18.2443 31.2984 19.3601 31.8554 20.7022 32.1681V33.2293C20.7022 33.563 20.8274 33.8551 21.0777 34.1054C21.328 34.3557 21.62 34.4809 21.9538 34.4809C22.2876 34.4809 22.5796 34.3557 22.8299 34.1054C23.0802 33.8551 23.2054 33.563 23.2054 33.2293V32.2597C24.6274 32.067 25.9148 31.5328 27.0677 30.6573C28.2206 29.7818 28.797 28.4544 28.797 26.6751C28.797 25.3918 28.4186 24.2565 27.6618 23.2694C26.905 22.2822 25.4265 21.3914 23.2265 20.5969C21.2992 19.9388 20.0193 19.3688 19.3871 18.887C18.7548 18.4052 18.4387 17.7318 18.4387 16.8668C18.4387 16.0018 18.7625 15.299 19.41 14.7585C20.0576 14.2178 20.9513 13.9475 22.0913 13.9475C23.0456 13.9475 23.8153 14.1726 24.4006 14.6227C24.9859 15.0728 25.436 15.6375 25.7509 16.3167L28.0143 15.4072C27.6312 14.4318 27.0066 13.5968 26.1404 12.9022C25.2743 12.2077 24.3265 11.8204 23.297 11.7405V10.771C23.297 10.4372 23.1719 10.1452 22.9216 9.89485C22.6713 9.64454 22.3792 9.51938 22.0455 9.51938C21.7117 9.51938 21.4197 9.64454 21.1694 9.89485C20.919 10.1452 20.7939 10.4372 20.7939 10.771V11.7405C19.2309 12.0414 18.0304 12.6754 17.1924 13.6426C16.3545 14.6098 15.9356 15.6845 15.9356 16.8668C15.9356 18.2441 16.3528 19.3524 17.1872 20.1914C18.0216 21.0306 19.3813 21.7886 21.2663 22.4655C23.2148 23.18 24.5458 23.8211 25.2591 24.3887C25.9725 24.9564 26.3291 25.7185 26.3291 26.6751C26.3291 27.8245 25.9143 28.6595 25.0846 29.1801C24.2549 29.7007 23.3212 29.961 22.2834 29.961C21.2457 29.961 20.3197 29.6508 19.5052 29.0303C18.6908 28.4098 18.065 27.5025 17.6278 26.3085L15.308 27.2534ZM22.0027 39.4167C19.5938 39.4167 17.3296 38.9596 15.21 38.0454C13.0904 37.1312 11.2467 35.8905 9.67876 34.3233C8.11083 32.7561 6.86956 30.9131 5.95494 28.7945C5.04032 26.6758 4.58301 24.4121 4.58301 22.0032C4.58301 19.5943 5.04012 17.3301 5.95434 15.2105C6.86856 13.0909 8.10927 11.2471 9.67647 9.67925C11.2437 8.11132 13.0866 6.87005 15.2053 5.95543C17.3239 5.04081 19.5877 4.5835 21.9966 4.5835C24.4054 4.5835 26.6697 5.04061 28.7892 5.95483C30.9089 6.86905 32.7526 8.10976 34.3205 9.67695C35.8884 11.2442 37.1297 13.0871 38.0443 15.2058C38.9589 17.3244 39.4163 19.5882 39.4163 21.997C39.4163 24.4059 38.9591 26.6702 38.0449 28.7897C37.1307 30.9093 35.89 32.7531 34.3228 34.321C32.7556 35.8889 30.9126 37.1302 28.794 38.0448C26.6753 38.9594 24.4116 39.4167 22.0027 39.4167ZM21.9996 36.6668C26.0941 36.6668 29.5621 35.246 32.4038 32.4043C35.2455 29.5626 36.6663 26.0946 36.6663 22.0001C36.6663 17.9057 35.2455 14.4376 32.4038 11.596C29.5621 8.75428 26.0941 7.33345 21.9996 7.33345C17.9052 7.33345 14.4371 8.75428 11.5955 11.596C8.7538 14.4376 7.33296 17.9057 7.33296 22.0001C7.33296 26.0946 8.7538 29.5626 11.5955 32.4043C14.4371 35.246 17.9052 36.6668 21.9996 36.6668Z" fill="black"/>
</svg>
