<svg width="48" height="48" viewBox="0 0 48 48" fill="none" xmlns="http://www.w3.org/2000/svg">
<path d="M23.6001 40.0115C22.5001 40.0115 21.5584 39.618 20.7751 38.831C19.9918 38.0437 19.6001 37.1 19.6001 36C19.6001 34.9 19.9918 33.9583 20.7751 33.175C21.5584 32.3917 22.5001 32 23.6001 32L24.8001 30.85C25.0668 30.5833 25.3751 30.375 25.7251 30.225C26.0751 30.075 26.4334 30 26.8001 30C27.5668 30 28.2251 30.2833 28.7751 30.85C29.3251 31.4167 29.6001 32.0833 29.6001 32.85V33.7C29.6001 34.3667 29.8168 34.9167 30.2501 35.35C30.6834 35.7833 31.2334 36 31.9001 36C32.4001 36 32.8501 35.85 33.2501 35.55C33.6501 35.25 33.9334 34.8667 34.1001 34.4L34.7001 32.75C35.0001 31.95 35.4771 31.2917 36.1311 30.775C36.7848 30.2583 37.5449 30 38.4116 30C38.7783 29.0667 39.0699 28.1 39.2866 27.1C39.5033 26.1 39.6116 25.0667 39.6116 24C39.6116 21.0333 38.8764 18.3313 37.4061 15.894C35.9354 13.457 34.0001 11.5385 31.6001 10.1385V12C31.6001 13.1 31.2084 14.0417 30.4251 14.825C29.6418 15.6083 28.7001 16 27.6001 16H25.6001V20C25.6001 20.5667 25.4084 21.0417 25.0251 21.425C24.6418 21.8083 24.1668 22 23.6001 22H21.6001V25.4C21.6001 26.1333 21.3501 26.75 20.8501 27.25C20.3501 27.75 19.7334 28 19.0001 28C18.5334 28 18.1084 27.9 17.7251 27.7C17.3418 27.5 17.0334 27.2167 16.8001 26.85L13.6001 22H11.6001V24C11.6001 25.0333 11.2561 25.9167 10.5681 26.65C9.8801 27.3833 9.0536 27.8167 8.0886 27.95C8.95526 31.4167 10.8238 34.2937 13.6941 36.581C16.5648 38.868 19.8668 40.0115 23.6001 40.0115ZM27.6001 28C27.0334 28 26.5584 27.8083 26.1751 27.425C25.7918 27.0417 25.6001 26.5667 25.6001 26C25.6001 25.4333 25.7918 24.9583 26.1751 24.575C26.5584 24.1917 27.0334 24 27.6001 24H29.6001C30.1668 24 30.6418 24.1917 31.0251 24.575C31.4084 24.9583 31.6001 25.4333 31.6001 26C31.6001 26.5667 31.4084 27.0417 31.0251 27.425C30.6418 27.8083 30.1668 28 29.6001 28H27.6001ZM32.2501 22C31.5834 22 31.0584 21.7417 30.6751 21.225C30.2918 20.7083 30.2001 20.1333 30.4001 19.5L31.1501 17.3C31.2834 16.9 31.5168 16.5833 31.8501 16.35C32.1834 16.1167 32.5501 16 32.9501 16C33.6168 16 34.1418 16.2583 34.5251 16.775C34.9084 17.2917 35.0001 17.8667 34.8001 18.5L34.0501 20.7C33.9168 21.1 33.6834 21.4167 33.3501 21.65C33.0168 21.8833 32.6501 22 32.2501 22ZM23.6036 43C20.9756 43 18.5054 42.5013 16.1931 41.504C13.8808 40.5067 11.8694 39.1532 10.1591 37.4435C8.44876 35.7338 7.0946 33.7233 6.0966 31.412C5.09893 29.1007 4.6001 26.6312 4.6001 24.0035C4.6001 21.3755 5.09876 18.9053 6.0961 16.593C7.09343 14.2807 8.44693 12.2693 10.1566 10.559C11.8663 8.84867 13.8768 7.4945 16.1881 6.4965C18.4994 5.49883 20.9689 5 23.5966 5C26.2246 5 28.6948 5.49867 31.0071 6.496C33.3194 7.49333 35.3308 8.84683 37.0411 10.5565C38.7514 12.2662 40.1056 14.2767 41.1036 16.588C42.1013 18.8993 42.6001 21.3688 42.6001 23.9965C42.6001 26.6245 42.1014 29.0947 41.1041 31.407C40.1068 33.7193 38.7533 35.7307 37.0436 37.441C35.3339 39.1513 33.3234 40.5055 31.0121 41.5035C28.7008 42.5012 26.2313 43 23.6036 43Z" fill="#202629"/>
</svg>
