<svg width="44" height="44" viewBox="0 0 44 44" fill="none" xmlns="http://www.w3.org/2000/svg">
<path d="M34.7699 29.4212L24.884 19.6446C24.7665 19.5388 24.6313 19.4859 24.4785 19.4859C24.3257 19.4859 24.1964 19.5388 24.0907 19.6446L19.5109 24.2244C18.8669 24.8684 18.0783 25.1905 17.1452 25.1905C16.2121 25.1905 15.4294 24.8684 14.7971 24.2244L5.5494 14.9027C5.29554 14.6488 5.16098 14.3344 5.1457 13.9596C5.13042 13.5847 5.26499 13.2551 5.5494 12.9706C5.81499 12.7051 6.13698 12.5723 6.51538 12.5723C6.89381 12.5723 7.21582 12.7051 7.48141 12.9706L16.7397 22.2289C16.8455 22.3347 16.9806 22.3876 17.1452 22.3876C17.3097 22.3876 17.4449 22.3347 17.5507 22.2289L22.1304 17.6492C22.7627 17.0169 23.5454 16.7007 24.4785 16.7007C25.4116 16.7007 26.1943 17.0169 26.8266 17.6492L36.6667 27.4892V23.4629C36.6667 23.0727 36.7983 22.746 37.0615 22.4828C37.3247 22.2195 37.6514 22.0879 38.0416 22.0879C38.4318 22.0879 38.7585 22.2195 39.0217 22.4828C39.285 22.746 39.4166 23.0727 39.4166 23.4629V30.5141C39.4166 30.9866 39.2585 31.3809 38.9424 31.697C38.6262 32.0131 38.232 32.1712 37.7596 32.1712H30.7083C30.3181 32.1712 29.9914 32.0396 29.7282 31.7763C29.4649 31.5131 29.3333 31.1864 29.3333 30.7962C29.3333 30.4061 29.4649 30.0794 29.7282 29.8161C29.9914 29.5529 30.3181 29.4212 30.7083 29.4212H34.7699Z" fill="black"/>
</svg>
