<svg width="44" height="44" viewBox="0 0 44 44" fill="none" xmlns="http://www.w3.org/2000/svg">
<path d="M7.89713 37.5831C6.97105 37.5831 6.18717 37.2623 5.54551 36.6206C4.90384 35.979 4.58301 35.1951 4.58301 34.269V15.2307C4.58301 14.3046 4.90384 13.5207 5.54551 12.8791C6.18717 12.2374 6.97105 11.9166 7.89713 11.9166H15.583V8.81407C15.583 7.88802 15.9038 7.10417 16.5455 6.4625C17.1872 5.82083 17.971 5.5 18.8971 5.5H25.1021C26.0282 5.5 26.8121 5.82083 27.4538 6.4625C28.0954 7.10417 28.4163 7.88802 28.4163 8.81407V11.9166H36.1021C37.0282 11.9166 37.8121 12.2374 38.4538 12.8791C39.0954 13.5207 39.4163 14.3046 39.4163 15.2307V34.269C39.4163 35.1951 39.0954 35.979 38.4538 36.6206C37.8121 37.2623 37.0282 37.5831 36.1021 37.5831H7.89713ZM7.89713 34.8332H36.1021C36.2432 34.8332 36.3725 34.7744 36.49 34.6569C36.6075 34.5394 36.6663 34.4101 36.6663 34.269V15.2307C36.6663 15.0896 36.6075 14.9604 36.49 14.8428C36.3725 14.7253 36.2432 14.6665 36.1021 14.6665H7.89713C7.75608 14.6665 7.62678 14.7253 7.50924 14.8428C7.39172 14.9604 7.33296 15.0896 7.33296 15.2307V34.269C7.33296 34.4101 7.39172 34.5394 7.50924 34.6569C7.62678 34.7744 7.75608 34.8332 7.89713 34.8332ZM18.333 11.9166H25.6663V8.81407C25.6663 8.67303 25.6075 8.54375 25.49 8.42623C25.3725 8.30868 25.2432 8.24991 25.1021 8.24991H18.8971C18.7561 8.24991 18.6268 8.30868 18.5092 8.42623C18.3917 8.54375 18.333 8.67303 18.333 8.81407V11.9166Z" fill="black"/>
</svg>
