<svg width="44" height="44" viewBox="0 0 44 44" fill="none" xmlns="http://www.w3.org/2000/svg">
<path d="M22.0003 35.6795C20.3402 35.6795 18.7764 35.4063 17.3089 34.8598C15.8415 34.3134 14.5107 33.5512 13.3167 32.5735L10.133 35.7113C9.88308 35.9652 9.565 36.0921 9.17874 36.0921C8.79252 36.0921 8.47248 35.9652 8.21863 35.7113C7.9648 35.4575 7.83789 35.1374 7.83789 34.7512C7.83789 34.3649 7.9648 34.0469 8.21863 33.7969L11.3565 30.6591C10.3787 29.4651 9.61661 28.1268 9.07012 26.6442C8.52363 25.1616 8.25039 23.5901 8.25039 21.9296C8.25039 18.0911 9.58243 14.8398 12.2465 12.1758C14.9106 9.51171 18.1618 8.17969 22.0003 8.17969H35.7503V21.9296C35.7503 25.7681 34.4183 29.0194 31.7542 31.6835C29.0901 34.3475 25.8389 35.6795 22.0003 35.6795ZM22.0003 32.9296C25.0559 32.9296 27.6531 31.8601 29.792 29.7213C31.9309 27.5824 33.0003 24.9851 33.0003 21.9296V10.9296H22.0003C18.9448 10.9296 16.3476 11.999 14.2087 14.1379C12.0698 16.2768 11.0003 18.874 11.0003 21.9296C11.0003 23.2035 11.2072 24.4152 11.6209 25.5645C12.0345 26.7139 12.6092 27.7493 13.3449 28.6707L22.8853 19.1303C23.1352 18.8765 23.4533 18.7495 23.8395 18.7495C24.2258 18.7495 24.5476 18.8782 24.805 19.1356C25.0859 19.4165 25.2263 19.7414 25.2263 20.1104C25.2263 20.4794 25.0841 20.8061 24.7997 21.0905L15.2593 30.6132C16.1806 31.3489 17.216 31.9189 18.3654 32.3232C19.5147 32.7275 20.7264 32.9296 22.0003 32.9296Z" fill="#ED9BA9"/>
</svg>
