<svg width="44" height="44" viewBox="0 0 44 44" fill="none" xmlns="http://www.w3.org/2000/svg">
<path d="M11.4583 39.5219C11.0688 39.5219 10.7422 39.3901 10.4786 39.1265C10.2151 38.8628 10.0833 38.5361 10.0833 38.1464C10.0833 37.7566 10.2151 37.4301 10.4786 37.1669C10.7422 36.9036 11.0688 36.772 11.4583 36.772H20.625V28.7687H16.5C14.2107 28.7687 12.2634 27.9661 10.658 26.3608C9.05266 24.7554 8.25 22.8081 8.25 20.5188C8.25 18.7913 8.76593 17.2294 9.79779 15.8333C10.8296 14.4372 12.1541 13.3994 13.7712 12.7202C14.0344 10.3697 14.9323 8.4847 16.4648 7.06506C17.9972 5.64538 19.8423 4.93555 22 4.93555C24.1576 4.93555 26.0027 5.64538 27.5352 7.06506C29.0676 8.4847 29.9655 10.3697 30.2287 12.7202C31.8576 13.3759 33.185 14.4077 34.211 15.8156C35.2369 17.2236 35.7499 18.7913 35.7499 20.5188C35.7499 22.8081 34.9472 24.7554 33.3419 26.3608C31.7366 27.9661 29.7892 28.7687 27.5 28.7687H23.3749V36.772H32.5416C32.9312 36.772 33.2577 36.9039 33.5213 37.1675C33.7848 37.4312 33.9166 37.7579 33.9166 38.1476C33.9166 38.5374 33.7848 38.8638 33.5213 39.1271C33.2577 39.3903 32.9312 39.5219 32.5416 39.5219H11.4583ZM16.5 26.0188H27.5C29.0277 26.0188 30.3263 25.4841 31.3958 24.4147C32.4652 23.3452 33 22.0466 33 20.5188C33 19.3365 32.6368 18.2783 31.9105 17.344C31.1842 16.4097 30.264 15.7169 29.1499 15.2656L27.6833 14.6522L27.4788 13.0022C27.2837 11.3569 26.6832 10.0594 25.6772 9.10987C24.6712 8.16029 23.4455 7.6855 22 7.6855C20.5544 7.6855 19.3287 8.16029 18.3227 9.10987C17.3167 10.0594 16.7162 11.3569 16.5211 13.0022L16.3166 14.6522L14.709 15.3361C13.6418 15.7874 12.7569 16.4743 12.0541 17.3969C11.3513 18.3194 11 19.3601 11 20.5188C11 22.0466 11.5347 23.3452 12.6041 24.4147C13.6736 25.4841 14.9722 26.0188 16.5 26.0188Z" fill="black"/>
</svg>
