<svg width="44" height="44" viewBox="0 0 44 44" fill="none" xmlns="http://www.w3.org/2000/svg">
<path d="M34.833 15.5832C35.3524 15.5832 35.7878 15.4075 36.1392 15.0562C36.4906 14.7048 36.6663 14.2694 36.6663 13.7499C36.6663 13.2305 36.4906 12.795 36.1392 12.4437C35.7878 12.0923 35.3524 11.9166 34.833 11.9166C34.3135 11.9166 33.8781 12.0923 33.5267 12.4437C33.1753 12.795 32.9996 13.2305 32.9996 13.7499C32.9996 14.2694 33.1753 14.7048 33.5267 15.0562C33.8781 15.4075 34.3135 15.5832 34.833 15.5832ZM34.8317 18.3332C33.5328 18.3332 32.4444 17.8944 31.5665 17.0167C30.6886 16.139 30.2497 15.0515 30.2497 13.7541C30.2497 12.4821 30.6885 11.3995 31.5662 10.5064C32.4439 9.61323 33.5314 9.16667 34.8288 9.16667C36.1008 9.16667 37.1834 9.61238 38.0765 10.5038C38.9697 11.3952 39.4163 12.4777 39.4163 13.7511C39.4163 15.0501 38.9705 16.1385 38.0791 17.0164C37.1876 17.8943 36.1052 18.3332 34.8317 18.3332ZM21.9996 13.7499C22.7635 13.7499 23.4128 13.4902 23.9475 12.9707C24.4823 12.4513 24.7496 11.7944 24.7496 10.9999C24.7496 10.236 24.4823 9.58671 23.9475 9.05199C23.4128 8.51727 22.7635 8.24991 21.9996 8.24991C21.2052 8.24991 20.5482 8.51727 20.0288 9.05199C19.5094 9.58671 19.2496 10.236 19.2496 10.9999C19.2496 11.7944 19.5094 12.4513 20.0288 12.9707C20.5482 13.4902 21.2052 13.7499 21.9996 13.7499ZM22.0007 16.4999C20.4558 16.4999 19.1527 15.9701 18.0915 14.9105C17.0303 13.8508 16.4997 12.5492 16.4997 11.0056C16.4997 9.48819 17.0295 8.19121 18.0891 7.11471C19.1487 6.03824 20.4503 5.5 21.9939 5.5C23.5114 5.5 24.8084 6.0368 25.8848 7.1104C26.9613 8.18397 27.4996 9.48012 27.4996 10.9989C27.4996 12.5438 26.9628 13.8468 25.8892 14.9081C24.8156 15.9693 23.5194 16.4999 22.0007 16.4999ZM14.1727 24.5207C14.1727 25.5314 14.6733 26.6713 15.6746 27.9406C16.6759 29.2098 18.6726 31.203 21.6647 33.9201L21.9996 34.2198L22.3699 33.8672C25.2421 31.27 27.2029 29.3225 28.2524 28.0247C29.3019 26.7269 29.8266 25.5589 29.8266 24.5207C29.8266 23.6803 29.55 22.9678 28.9967 22.3832C28.4434 21.7985 27.7611 21.5062 26.9496 21.5062C26.4501 21.5062 25.9774 21.6155 25.5314 21.8341C25.0854 22.0527 24.7108 22.3536 24.4076 22.7367L22.3663 25.1729H21.6048L19.5458 22.7367C19.2426 22.3536 18.8706 22.0527 18.4299 21.8341C17.9892 21.6155 17.5291 21.5062 17.0496 21.5062C16.2013 21.5062 15.5097 21.7985 14.9749 22.3832C14.4401 22.9678 14.1727 23.6803 14.1727 24.5207ZM11.4227 24.5207C11.4227 23.0188 11.9522 21.6826 13.011 20.5121C14.0699 19.3415 15.4161 18.7563 17.0496 18.7563C17.9734 18.7563 18.8471 18.9702 19.6709 19.3979C20.4948 19.8257 21.1946 20.3945 21.7705 21.1044L21.9996 21.3688L22.2288 21.0868C22.8164 20.3887 23.5145 19.8257 24.3231 19.3979C25.1316 18.9702 26.0071 18.7563 26.9496 18.7563C28.5714 18.7563 29.9146 19.347 30.9794 20.5283C32.0442 21.7097 32.5765 23.0405 32.5765 24.5207C32.5765 26.0461 32.003 27.5751 30.856 29.1076C29.709 30.64 27.4174 32.9775 23.9811 36.12L21.9996 37.9357L20.0535 36.1729C16.5326 32.9528 14.2139 30.5901 13.0974 29.0846C11.981 27.5792 11.4227 26.0579 11.4227 24.5207ZM9.1663 15.5832C9.68574 15.5832 10.1212 15.4075 10.4725 15.0562C10.8239 14.7048 10.9996 14.2694 10.9996 13.7499C10.9996 13.2305 10.8239 12.795 10.4725 12.4437C10.1212 12.0923 9.68574 11.9166 9.1663 11.9166C8.64685 11.9166 8.21143 12.0923 7.86005 12.4437C7.50866 12.795 7.33296 13.2305 7.33296 13.7499C7.33296 14.2694 7.50866 14.7048 7.86005 15.0562C8.21143 15.4075 8.64685 15.5832 9.1663 15.5832ZM22.1371 39.4165V36.6665H36.6663V24.3974C36.6663 24.2445 36.6105 24.1123 36.4988 24.0007C36.3872 23.889 36.2549 23.8332 36.1021 23.8332H31.3285V21.0832H36.1021C37.0135 21.0832 37.7937 21.4078 38.4427 22.0568C39.0917 22.7058 39.4163 23.486 39.4163 24.3974V37.7583C39.4163 38.2315 39.2574 38.6261 38.9398 38.9422C38.6222 39.2584 38.2287 39.4165 37.7592 39.4165H22.1371ZM7.33296 36.6665H22.1371V39.4165H6.24007C5.77058 39.4165 5.37704 39.2577 5.05945 38.94C4.74182 38.6224 4.58301 38.2289 4.58301 37.7594V24.4032C4.58301 23.485 4.90062 22.7021 5.53584 22.0546C6.17103 21.407 6.95812 21.0832 7.89712 21.0832H12.6708V23.8332H7.89712C7.73258 23.8332 7.59742 23.889 7.49164 24.0007C7.38585 24.1123 7.33296 24.2445 7.33296 24.3974V36.6665ZM9.16506 18.3332C7.86611 18.3332 6.77771 17.8944 5.89985 17.0167C5.02195 16.139 4.58301 15.0515 4.58301 13.7541C4.58301 12.4821 5.02185 11.3995 5.89952 10.5064C6.7772 9.61323 7.86475 9.16667 9.16217 9.16667C10.4341 9.16667 11.5167 9.61238 12.4098 10.5038C13.303 11.3952 13.7496 12.4777 13.7496 13.7511C13.7496 15.0501 13.3039 16.1385 12.4124 17.0164C11.521 17.8943 10.4385 18.3332 9.16506 18.3332Z" fill="#ED9BA9"/>
</svg>
