<svg width="44" height="44" viewBox="0 0 44 44" fill="none" xmlns="http://www.w3.org/2000/svg">
<path d="M21.9992 9.55433C21.6095 9.55433 21.283 9.42256 21.0197 9.15901C20.7565 8.8955 20.6249 8.56896 20.6249 8.17937V4.16011C20.6249 3.77053 20.7567 3.44398 21.0203 3.18047C21.284 2.91693 21.6107 2.78516 22.0004 2.78516C22.3902 2.78516 22.7167 2.91693 22.9799 3.18047C23.2432 3.44398 23.3748 3.77053 23.3748 4.16011V8.17937C23.3748 8.56896 23.243 8.8955 22.9793 9.15901C22.7157 9.42256 22.389 9.55433 21.9992 9.55433ZM30.7928 13.2069C30.5389 12.9531 30.4149 12.6387 30.4208 12.2638C30.4267 11.8889 30.5565 11.5593 30.8104 11.2749L33.6062 8.41555C33.882 8.13117 34.2095 7.98898 34.5887 7.98898C34.9679 7.98898 35.3009 8.13246 35.5879 8.4194C35.8509 8.68246 35.9825 9.00318 35.9825 9.38158C35.9825 9.75998 35.8497 10.082 35.5841 10.3476L32.7248 13.2069C32.4592 13.4725 32.1371 13.6053 31.7587 13.6053C31.3803 13.6053 31.0584 13.4725 30.7928 13.2069ZM35.8203 23.3748C35.4307 23.3748 35.1041 23.243 34.8406 22.9793C34.5771 22.7157 34.4453 22.389 34.4453 21.9992C34.4453 21.6095 34.5771 21.283 34.8406 21.0197C35.1041 20.7565 35.4307 20.6249 35.8203 20.6249H39.8395C40.2291 20.6249 40.5557 20.7567 40.8192 21.0203C41.0827 21.284 41.2145 21.6107 41.2145 22.0004C41.2145 22.3902 41.0827 22.7167 40.8192 22.9799C40.5557 23.2432 40.2291 23.3748 39.8395 23.3748H35.8203ZM21.9992 41.2145C21.6095 41.2145 21.283 41.0827 21.0197 40.8192C20.7565 40.5557 20.6249 40.2291 20.6249 39.8395V35.8379C20.6249 35.4483 20.7567 35.1218 21.0203 34.8582C21.284 34.5947 21.6107 34.4629 22.0004 34.4629C22.3902 34.4629 22.7167 34.5947 22.9799 34.8582C23.2432 35.1218 23.3748 35.4483 23.3748 35.8379V39.8395C23.3748 40.2291 23.243 40.5557 22.9793 40.8192C22.7157 41.0827 22.389 41.2145 21.9992 41.2145ZM11.2925 13.2069L8.41555 10.3934C8.13117 10.1187 7.98898 9.78683 7.98898 9.39767C7.98898 9.00854 8.13117 8.68117 8.41555 8.41555C8.68117 8.16173 9.00709 8.03482 9.39332 8.03482C9.77957 8.03482 10.0977 8.16173 10.3476 8.41555L13.2245 11.2925C13.4783 11.5424 13.6053 11.8605 13.6053 12.2468C13.6053 12.633 13.4795 12.9531 13.2281 13.2069C12.9537 13.4607 12.6336 13.5877 12.2678 13.5877C11.902 13.5877 11.5769 13.4607 11.2925 13.2069ZM33.6238 35.5841L30.8104 32.7248C30.5565 32.4404 30.4267 32.1107 30.4208 31.7358C30.4149 31.3609 30.5377 31.0466 30.7892 30.7928C31.0407 30.5389 31.3551 30.412 31.7323 30.412C32.1095 30.412 32.4404 30.5448 32.7248 30.8104L35.5841 33.6238C35.8567 33.8777 35.9883 34.1968 35.9789 34.581C35.9695 34.9653 35.8361 35.2997 35.5787 35.5841C35.2979 35.8685 34.9643 36.0107 34.5781 36.0107C34.1919 36.0107 33.8738 35.8685 33.6238 35.5841ZM4.16011 23.3748C3.77053 23.3748 3.44398 23.243 3.18047 22.9793C2.91693 22.7157 2.78516 22.389 2.78516 21.9992C2.78516 21.6095 2.91691 21.283 3.18042 21.0197C3.44396 20.7565 3.77053 20.6249 4.16011 20.6249H8.17937C8.56896 20.6249 8.8955 20.7567 9.15902 21.0203C9.42256 21.284 9.55433 21.6107 9.55433 22.0004C9.55433 22.3902 9.42256 22.7167 9.15902 22.9799C8.8955 23.2432 8.56896 23.3748 8.17937 23.3748H4.16011ZM8.4332 35.5841C8.17937 35.3185 8.04951 34.9935 8.04362 34.6093C8.03775 34.225 8.16173 33.9059 8.41555 33.6521L11.2573 30.8104C11.5229 30.5448 11.8402 30.412 12.2092 30.412C12.5782 30.412 12.9049 30.5435 13.1893 30.8066C13.4737 31.0935 13.6158 31.4244 13.6158 31.7993C13.6158 32.1742 13.4737 32.5038 13.1893 32.7882L10.3934 35.5841C10.109 35.8685 9.7737 36.0107 9.38745 36.0107C9.0012 36.0107 8.68311 35.8685 8.4332 35.5841ZM22.004 32.0831C19.2042 32.0831 16.823 31.1032 14.8605 29.1434C12.8978 27.1835 11.9165 24.8037 11.9165 22.004C11.9165 19.2042 12.8964 16.823 14.8563 14.8605C16.8161 12.8978 19.1959 11.9165 21.9956 11.9165C24.7954 11.9165 27.1766 12.8964 29.1392 14.8563C31.1018 16.8161 32.0831 19.1959 32.0831 21.9956C32.0831 24.7954 31.1032 27.1766 29.1434 29.1392C27.1835 31.1018 24.8037 32.0831 22.004 32.0831ZM21.9998 29.3332C24.0165 29.3332 25.7429 28.6151 27.179 27.179C28.6151 25.7429 29.3332 24.0165 29.3332 21.9998C29.3332 19.9832 28.6151 18.2568 27.179 16.8207C25.7429 15.3845 24.0165 14.6665 21.9998 14.6665C19.9832 14.6665 18.2568 15.3845 16.8207 16.8207C15.3845 18.2568 14.6665 19.9832 14.6665 21.9998C14.6665 24.0165 15.3845 25.7429 16.8207 27.179C18.2568 28.6151 19.9832 29.3332 21.9998 29.3332Z" fill="#ED9BA9"/>
</svg>
