<svg width="44" height="44" viewBox="0 0 44 44" fill="none" xmlns="http://www.w3.org/2000/svg">
<path d="M5.85254 32.4356V20.0924C5.85254 19.6505 5.93832 19.2257 6.10989 18.8179C6.28149 18.4101 6.51772 18.0558 6.81857 17.7549L13.5877 10.9857C13.9191 10.6543 14.2905 10.4087 14.7018 10.2489C15.1131 10.089 15.5245 10.0091 15.9358 10.0091C16.3471 10.0091 16.7584 10.089 17.1698 10.2489C17.5811 10.4087 17.9525 10.6543 18.2839 10.9857L25.053 17.7549C25.3539 18.0558 25.5901 18.4101 25.7617 18.8179C25.9333 19.2257 26.0191 19.6505 26.0191 20.0924V32.4356C26.0191 33.3499 25.6953 34.1308 25.0478 34.7784C24.4002 35.4259 23.6193 35.7497 22.705 35.7497H9.16661C8.2523 35.7497 7.47137 35.4259 6.82384 34.7784C6.17631 34.1308 5.85254 33.3499 5.85254 32.4356ZM9.16661 32.9998H14.314V29.7562C14.314 29.3073 14.4691 28.9247 14.7794 28.6086C15.0897 28.2925 15.4751 28.1344 15.9358 28.1344C16.3847 28.1344 16.7672 28.2925 17.0834 28.6086C17.3995 28.9247 17.5576 29.3073 17.5576 29.7562V32.9998H22.705C22.8695 32.9998 23.0047 32.9469 23.1105 32.8411C23.2162 32.7353 23.2691 32.6001 23.2691 32.4356V20.0748C23.2691 20.0043 23.2574 19.9367 23.2339 19.872C23.2104 19.8074 23.1692 19.7457 23.1105 19.6869L16.3413 12.9177C16.2355 12.812 16.1003 12.7591 15.9358 12.7591C15.7712 12.7591 15.6361 12.812 15.5303 12.9177L8.76112 19.6869C8.70236 19.7457 8.66124 19.8074 8.63774 19.872C8.61421 19.9367 8.60245 20.0043 8.60245 20.0748V32.4356C8.60245 32.6001 8.65534 32.7353 8.76112 32.8411C8.86691 32.9469 9.00207 32.9998 9.16661 32.9998ZM29.3331 34.3924V17.5787C29.3331 17.5082 29.3214 17.4406 29.2979 17.3759C29.2744 17.3113 29.2332 17.2496 29.1745 17.1908L22.9623 10.9786C22.5228 10.5391 22.4176 10.0391 22.6468 9.47851C22.8759 8.91797 23.3031 8.6377 23.9283 8.6377C24.114 8.6377 24.2967 8.67647 24.4765 8.75402C24.6563 8.83157 24.805 8.9291 24.9225 9.04662L31.1171 15.2412C31.4179 15.542 31.6541 15.8964 31.8257 16.3041C31.9973 16.7119 32.0831 17.1368 32.0831 17.5787V34.3924C32.0831 34.7825 31.9515 35.1092 31.6882 35.3725C31.425 35.6357 31.0983 35.7673 30.7081 35.7673C30.3179 35.7673 29.9912 35.6357 29.728 35.3725C29.4648 35.1092 29.3331 34.7825 29.3331 34.3924ZM35.3972 34.3924V15.0649C35.3972 14.9944 35.3854 14.9268 35.3619 14.8622C35.3384 14.7975 35.2972 14.7358 35.2385 14.6771L31.5577 10.9963C31.1182 10.5568 31.013 10.0538 31.2421 9.48735C31.4713 8.92092 31.8985 8.6377 32.5237 8.6377C32.7094 8.6377 32.8921 8.67647 33.0719 8.75402C33.2517 8.83157 33.4004 8.9291 33.5179 9.04662L37.1987 12.7275C37.4995 13.0283 37.7328 13.3826 37.8985 13.7904C38.0642 14.1982 38.1471 14.623 38.1471 15.0649V34.3924C38.1471 34.7825 38.0155 35.1092 37.7522 35.3725C37.489 35.6357 37.1623 35.7673 36.7721 35.7673C36.382 35.7673 36.0553 35.6357 35.792 35.3725C35.5288 35.1092 35.3972 34.7825 35.3972 34.3924ZM9.16661 32.9998H23.2691H8.60245H9.16661ZM15.9358 23.6215C15.4869 23.6215 15.1043 23.4635 14.7882 23.1473C14.4721 22.8312 14.314 22.4487 14.314 21.9998C14.314 21.5508 14.4721 21.1683 14.7882 20.8522C15.1043 20.5361 15.4869 20.378 15.9358 20.378C16.3847 20.378 16.7672 20.5361 17.0834 20.8522C17.3995 21.1683 17.5576 21.5508 17.5576 21.9998C17.5576 22.4487 17.3995 22.8312 17.0834 23.1473C16.7672 23.4635 16.3847 23.6215 15.9358 23.6215Z" fill="black"/>
</svg>
