<svg width="44" height="44" viewBox="0 0 44 44" fill="none" xmlns="http://www.w3.org/2000/svg">
<path d="M4.63987 20.6252C4.98068 16.1217 6.80696 12.3223 10.1187 9.22678C13.4304 6.13126 17.3909 4.5835 22.0001 4.5835C24.4069 4.5835 26.6651 5.04125 28.7746 5.95676C30.884 6.87223 32.7274 8.11853 34.3045 9.69566C35.8817 11.2728 37.128 13.1161 38.0434 15.2256C38.9589 17.3351 39.4167 19.5933 39.4167 22.0001C39.4167 24.3882 38.9589 26.6416 38.0434 28.7605C37.128 30.8794 35.8817 32.7274 34.3045 34.3046C32.7274 35.8817 30.884 37.128 28.7746 38.0435C26.6651 38.959 24.4069 39.4167 22.0001 39.4167C20.4394 39.4167 18.9098 39.2093 17.4115 38.7945C15.913 38.3796 14.4763 37.7632 13.1013 36.9452C12.6924 36.7102 12.4662 36.3788 12.4227 35.9511C12.3792 35.5233 12.5373 35.1296 12.8969 34.77C13.1014 34.5655 13.3646 34.4415 13.6866 34.398C14.0086 34.3546 14.2965 34.4104 14.5504 34.5655C15.7162 35.2471 16.9214 35.7677 18.1659 36.1274C19.4105 36.487 20.6885 36.6668 22.0001 36.6668C26.0757 36.6668 29.5391 35.2412 32.3901 32.3902C35.2412 29.5391 36.6667 26.0758 36.6667 22.0001C36.6667 17.9245 35.2412 14.4611 32.3901 11.6101C29.5391 8.75899 26.0757 7.33345 22.0001 7.33345C18.1594 7.33345 14.8495 8.61032 12.0701 11.1641C9.2907 13.7178 7.73061 16.8715 7.38982 20.6252C7.35221 21.0153 7.20178 21.342 6.93854 21.6053C6.67531 21.8685 6.34861 22.0001 5.95845 22.0001C5.56828 22.0001 5.24158 21.8638 4.97834 21.5911C4.71508 21.3185 4.60225 20.9965 4.63987 20.6252ZM29.6331 19.9658V24.0274C29.6331 24.4175 29.7647 24.7442 30.028 25.0075C30.2912 25.2707 30.6179 25.4023 31.0081 25.4023C31.3982 25.4023 31.7249 25.2707 31.9882 25.0075C32.2514 24.7442 32.383 24.4175 32.383 24.0274V16.9409C32.383 16.4684 32.2249 16.0742 31.9088 15.758C31.5927 15.4419 31.1984 15.2838 30.726 15.2838H23.6395C23.2493 15.2838 22.9226 15.4155 22.6594 15.6787C22.3961 15.9419 22.2645 16.2686 22.2645 16.6588C22.2645 17.049 22.3961 17.3757 22.6594 17.6389C22.9226 17.9021 23.2493 18.0337 23.6395 18.0337H27.6658L20.1103 25.6245L15.7703 21.9896C15.4389 21.7075 15.0598 21.5818 14.6332 21.6123C14.2066 21.6429 13.8429 21.8086 13.5421 22.1094L7.00555 28.6283C6.77052 28.8633 6.63597 29.1342 6.6019 29.441C6.5678 29.7477 6.62831 30.0432 6.78345 30.3276C7.01848 30.7296 7.3587 30.9523 7.80411 30.9957C8.24949 31.0392 8.63319 30.9 8.95521 30.578L14.7232 24.7924L19.0632 28.4097C19.3946 28.6917 19.7736 28.8204 20.2002 28.7957C20.6268 28.7711 20.9905 28.6083 21.2914 28.3075L29.6331 19.9658Z" fill="black"/>
</svg>
