<svg width="48" height="48" viewBox="0 0 48 48" fill="none" xmlns="http://www.w3.org/2000/svg">
<path d="M10.0042 23.1115L5.69624 18.804C5.3349 18.4424 5.1574 18.0205 5.16374 17.5385C5.17007 17.0565 5.35407 16.6347 5.71574 16.273L10.0042 11.9845C10.3656 11.6232 10.7874 11.4425 11.2697 11.4425C11.7517 11.4425 12.1734 11.6232 12.5347 11.9845L16.8232 16.273C17.1849 16.6347 17.3657 17.0565 17.3657 17.5385C17.3657 18.0205 17.1849 18.4424 16.8232 18.804L12.5347 23.0925C12.1734 23.4539 11.7517 23.6377 11.2697 23.644C10.7874 23.6507 10.3656 23.4732 10.0042 23.1115ZM20.6157 43C20.1034 43 19.6741 42.8267 19.3277 42.48C18.9814 42.1337 18.8082 41.7044 18.8082 41.192V33.404C17.0926 33.2687 15.3942 33.0829 13.7132 32.8465C12.0319 32.6102 10.3507 32.3062 8.66974 31.9345C8.23107 31.8269 7.87207 31.5904 7.59274 31.225C7.31307 30.8597 7.2374 30.461 7.36574 30.029C7.49407 29.597 7.75557 29.2797 8.15024 29.077C8.54524 28.8744 8.9619 28.8269 9.40024 28.9345C11.7952 29.4885 14.2131 29.8719 16.6537 30.0845C19.0944 30.2975 21.5432 30.404 24.0002 30.404C26.4572 30.404 28.9061 30.2975 31.3467 30.0845C33.7874 29.8719 36.2052 29.4885 38.6002 28.9345C39.0386 28.8269 39.4554 28.8737 39.8507 29.075C40.2461 29.2767 40.5074 29.5914 40.6347 30.019C40.7631 30.4577 40.6874 30.8597 40.4077 31.225C40.1284 31.5904 39.7694 31.8269 39.3307 31.9345C37.6497 32.3062 35.9686 32.6102 34.2872 32.8465C32.6062 33.0829 30.9079 33.2687 29.1922 33.404V41.192C29.1922 41.7044 29.0191 42.1337 28.6727 42.48C28.3264 42.8267 27.8971 43 27.3847 43H20.6157ZM11.2697 20.181L13.8927 17.5385L11.2697 14.9155L8.62724 17.5385L11.2697 20.181ZM24.0002 14.3845C22.5259 14.3845 21.2727 13.8685 20.2407 12.8365C19.2087 11.8045 18.6927 10.5514 18.6927 9.07703C18.6927 7.6027 19.2087 6.34953 20.2407 5.31753C21.2727 4.28553 22.5259 3.76953 24.0002 3.76953C25.4746 3.76953 26.7277 4.28553 27.7597 5.31753C28.7917 6.34953 29.3077 7.6027 29.3077 9.07703C29.3077 10.5514 28.7917 11.8045 27.7597 12.8365C26.7277 13.8685 25.4746 14.3845 24.0002 14.3845ZM24.0002 27.7885C22.9849 27.7885 22.1157 27.427 21.3927 26.704C20.6694 25.9807 20.3077 25.1114 20.3077 24.096C20.3077 23.0807 20.6694 22.2115 21.3927 21.4885C22.1157 20.7655 22.9849 20.404 24.0002 20.404C25.0156 20.404 25.8847 20.7655 26.6077 21.4885C27.3311 22.2115 27.6927 23.0807 27.6927 24.096C27.6927 25.1114 27.3311 25.9807 26.6077 26.704C25.8847 27.427 25.0156 27.7885 24.0002 27.7885ZM24.0002 11.3845C24.6439 11.3845 25.1894 11.1609 25.6367 10.7135C26.0841 10.2662 26.3077 9.7207 26.3077 9.07703C26.3077 8.43336 26.0841 7.88786 25.6367 7.44053C25.1894 6.9932 24.6439 6.76953 24.0002 6.76953C23.3566 6.76953 22.8111 6.9932 22.3637 7.44053C21.9164 7.88786 21.6927 8.43336 21.6927 9.07703C21.6927 9.7207 21.9164 10.2662 22.3637 10.7135C22.8111 11.1609 23.3566 11.3845 24.0002 11.3845ZM33.5312 22.9425L31.5197 19.4425C31.3657 19.1722 31.2887 18.8719 31.2887 18.5415C31.2887 18.2112 31.3657 17.9089 31.5197 17.6345L33.5312 14.1345C33.6849 13.8399 33.8979 13.6155 34.1702 13.4615C34.4422 13.3079 34.7446 13.231 35.0772 13.231H38.9807C39.3134 13.231 39.6159 13.3079 39.8882 13.4615C40.1602 13.6155 40.3732 13.8399 40.5272 14.1345L42.5387 17.6345C42.6924 17.9049 42.7692 18.2052 42.7692 18.5355C42.7692 18.8659 42.6924 19.1682 42.5387 19.4425L40.5272 22.9425C40.3732 23.2372 40.1602 23.4615 39.8882 23.6155C39.6159 23.7692 39.3134 23.846 38.9807 23.846H35.0772C34.7446 23.846 34.4422 23.7692 34.1702 23.6155C33.8979 23.4615 33.6849 23.2372 33.5312 22.9425ZM35.7527 20.846H38.3117L39.5847 18.5385L38.3052 16.231H35.7462L34.4732 18.5385L35.7527 20.846Z" fill="#202629"/>
</svg>
