<svg width="44" height="44" viewBox="0 0 44 44" fill="none" xmlns="http://www.w3.org/2000/svg">
<path d="M9.16631 37.5831C7.99695 37.5831 7.1658 37.0613 6.67284 36.0177C6.17986 34.9742 6.29886 34.0035 7.02984 33.1056L17.4164 20.4838V9.16646H15.2305C14.8409 9.16646 14.5143 9.03463 14.2508 8.77096C13.9872 8.50733 13.8555 8.18063 13.8555 7.79086C13.8555 7.40113 13.9872 7.07464 14.2508 6.81141C14.5143 6.54814 14.8409 6.4165 15.2305 6.4165H28.7688C29.1584 6.4165 29.485 6.54834 29.7485 6.812C30.012 7.07567 30.1438 7.40236 30.1438 7.7921C30.1438 8.18187 30.012 8.50837 29.7485 8.77161C29.485 9.03484 29.1584 9.16646 28.7688 9.16646H26.5829V20.4838L36.9695 33.1056C37.7004 34.0035 37.8194 34.9742 37.3265 36.0177C36.8335 37.0613 36.0023 37.5831 34.833 37.5831H9.16631ZM9.16631 34.8331H34.833L23.833 21.4498V9.16646H20.1663V21.4498L9.16631 34.8331Z" fill="#202629"/>
</svg>
