<svg width="44" height="44" viewBox="0 0 44 44" fill="none" xmlns="http://www.w3.org/2000/svg">
<path d="M7.0516 16.7472C6.66202 16.7472 6.33545 16.6153 6.07191 16.3517C5.80837 16.088 5.6766 15.7613 5.6766 15.3716C5.6766 14.9818 5.80837 14.6553 6.07191 14.3921C6.33545 14.1288 6.66202 13.9972 7.0516 13.9972H12.6574C13.4542 13.9972 14.1469 14.2622 14.7357 14.7922C15.3245 15.3222 15.6659 15.9739 15.7599 16.7472H7.0516ZM10.7535 33.2119C12.34 33.2119 13.6886 32.6566 14.7992 31.546C15.9098 30.4354 16.4651 29.0869 16.4651 27.5003C16.4651 25.9138 15.9098 24.5653 14.7992 23.4547C13.6886 22.3441 12.34 21.7888 10.7535 21.7888C9.16698 21.7888 7.81842 22.3441 6.70785 23.4547C5.59725 24.5653 5.04195 25.9138 5.04195 27.5003C5.04195 29.0869 5.59725 30.4354 6.70785 31.546C7.81842 32.6566 9.16698 33.2119 10.7535 33.2119ZM35.7503 33.2119C36.6317 33.2119 37.3868 32.8975 38.0156 32.2688C38.6443 31.64 38.9587 30.8849 38.9587 30.0035C38.9587 29.1221 38.6443 28.367 38.0156 27.7383C37.3868 27.1095 36.6317 26.7952 35.7503 26.7952C34.8689 26.7952 34.1138 27.1095 33.4851 27.7383C32.8563 28.367 32.5419 29.1221 32.5419 30.0035C32.5419 30.8849 32.8563 31.64 33.4851 32.2688C34.1138 32.8975 34.8689 33.2119 35.7503 33.2119ZM10.7493 29.8977C10.0823 29.8977 9.51661 29.6643 9.05241 29.1973C8.58821 28.7303 8.35611 28.1633 8.35611 27.4962C8.35611 26.8291 8.5896 26.2634 9.05658 25.7992C9.52353 25.335 10.0905 25.1029 10.7576 25.1029C11.4248 25.1029 11.9904 25.3364 12.4546 25.8034C12.9188 26.2704 13.1509 26.8374 13.1509 27.5045C13.1509 28.1716 12.9174 28.7372 12.4504 29.2014C11.9835 29.6656 11.4165 29.8977 10.7493 29.8977ZM36.6317 24.0911C37.2146 24.2086 37.7011 24.3561 38.0913 24.5335C38.4815 24.711 38.9116 25.0018 39.3817 25.4061V15.0196C39.3817 14.1082 39.0572 13.328 38.4082 12.679C37.7592 12.03 36.979 11.7055 36.0676 11.7055H25.5754L23.6504 9.68887L26.217 7.1222L24.9337 5.83887L18.4254 12.3472L19.8004 13.6305L22.367 11.0639L24.292 12.9889V16.5003C24.292 17.7026 23.864 18.7318 23.0078 19.588C22.1517 20.4441 21.1224 20.8722 19.9202 20.8722H15.9785C16.505 21.2859 16.9292 21.6972 17.2512 22.1061C17.5732 22.5151 17.907 23.0204 18.2525 23.6221H19.9202C21.8898 23.6221 23.5692 22.9276 24.9583 21.5385C26.3474 20.1494 27.0419 18.47 27.0419 16.5003V14.4554H36.0676C36.2321 14.4554 36.3673 14.5083 36.4731 14.6141C36.5789 14.7199 36.6317 14.8551 36.6317 15.0196V24.0911ZM29.8908 28.8753C30.0388 28.2736 30.207 27.781 30.3954 27.3976C30.5838 27.0142 30.8774 26.5901 31.2763 26.1254H19.0845C19.1715 26.6527 19.215 27.1112 19.215 27.5009C19.215 27.8907 19.1715 28.3488 19.0845 28.8753H29.8908ZM35.7503 35.9618C34.0956 35.9618 32.6889 35.3824 31.5302 34.2237C30.3714 33.065 29.792 31.6582 29.792 30.0035C29.792 28.3488 30.3714 26.9421 31.5302 25.7834C32.6889 24.6246 34.0956 24.0452 35.7503 24.0452C37.405 24.0452 38.8117 24.6246 39.9705 25.7834C41.1292 26.9421 41.7086 28.3488 41.7086 30.0035C41.7086 31.6582 41.1292 33.065 39.9705 34.2237C38.8117 35.3824 37.405 35.9618 35.7503 35.9618ZM10.7535 35.9618C8.4125 35.9618 6.41699 35.1368 4.76699 33.4869C3.11699 31.8369 2.29199 29.8414 2.29199 27.5003C2.29199 25.1593 3.11699 23.1638 4.76699 21.5138C6.41699 19.8639 8.4125 19.0389 10.7535 19.0389C13.0945 19.0389 15.09 19.8639 16.74 21.5138C18.39 23.1638 19.215 25.1593 19.215 27.5003C19.215 29.8414 18.39 31.8369 16.74 33.4869C15.09 35.1368 13.0945 35.9618 10.7535 35.9618Z" fill="black"/>
</svg>
