<svg width="44" height="44" viewBox="0 0 44 44" fill="none" xmlns="http://www.w3.org/2000/svg">
<path d="M19.2148 41.2503C19.2148 40.4653 19.5209 39.8107 20.1332 39.2866C20.7455 38.7624 21.5205 38.5004 22.4583 38.5004V28.3324C21.9976 28.1914 21.5834 27.9892 21.2155 27.726C20.8477 27.4627 20.5321 27.1501 20.2689 26.7881L15.8477 29.5664C15.5374 29.752 15.1949 29.8713 14.82 29.9242C14.4451 29.9771 14.0567 29.9448 13.6548 29.8273L5.4048 27.4898C4.70673 27.2923 4.1397 26.9021 3.7037 26.319C3.2677 25.736 3.0497 25.0756 3.0497 24.3379C3.0497 23.4236 3.36348 22.6527 3.99103 22.0251C4.61858 21.3975 5.38951 21.0838 6.30383 21.0838H20.082C20.3641 20.6654 20.7061 20.3046 21.108 20.0014C21.5099 19.6982 21.96 19.4761 22.4583 19.335V13.003C22.4583 12.6246 22.5312 12.262 22.6769 11.9154C22.8226 11.5687 23.0377 11.2684 23.3221 11.0146L29.6012 5.14792C30.1496 4.61421 30.7873 4.31096 31.5144 4.23818C32.2415 4.16539 32.915 4.31997 33.5348 4.70192C34.2976 5.17932 34.7923 5.85365 35.0188 6.72491C35.2453 7.59617 35.1235 8.41492 34.6534 9.18117L27.4893 21.0238C27.8677 21.3787 28.1486 21.8493 28.332 22.4358C28.5153 23.0223 28.5635 23.5975 28.4765 24.1617L33.7791 25.4591C34.1504 25.5578 34.4848 25.7158 34.7821 25.9333C35.0794 26.1507 35.3151 26.4204 35.489 26.7424L39.6598 34.2767C40.0241 34.9254 40.1577 35.607 40.0605 36.3216C39.9634 37.0362 39.6477 37.6555 39.1133 38.1795C38.4764 38.8164 37.7113 39.132 36.8182 39.1261C35.9251 39.1202 35.1541 38.7988 34.5054 38.1619L25.5785 29.2349C25.5197 29.2702 25.461 29.2995 25.4022 29.323C25.3434 29.3465 25.2788 29.3642 25.2082 29.3759V38.5004C26.1461 38.5004 26.9211 38.7624 27.5334 39.2866C28.1457 39.8107 28.4518 40.4653 28.4518 41.2503H19.2148ZM25.2082 13.003V19.335C25.2271 19.335 25.2412 19.3397 25.2505 19.3492C25.26 19.3586 25.2741 19.3633 25.2928 19.3633L32.3124 7.73389C32.3735 7.6113 32.3888 7.48105 32.3582 7.34316C32.3277 7.20526 32.2513 7.10576 32.1291 7.04464C32.0374 6.98353 31.9228 6.96826 31.7853 6.99881C31.6478 7.02937 31.5485 7.0752 31.4874 7.13631L25.2082 13.003ZM23.8302 25.8433C24.3987 25.8433 24.8763 25.651 25.263 25.2665C25.6496 24.8819 25.8429 24.4053 25.8429 23.8368C25.8429 23.2683 25.6506 22.7907 25.266 22.404C24.8815 22.0174 24.4049 21.8241 23.8364 21.8241C23.2679 21.8241 22.7903 22.0164 22.4036 22.401C22.017 22.7855 21.8237 23.2621 21.8237 23.8306C21.8237 24.3992 22.016 24.8767 22.4005 25.2634C22.7851 25.65 23.2617 25.8433 23.8302 25.8433ZM14.4269 27.2254L19.1477 24.3414C19.129 24.2474 19.1196 24.1628 19.1196 24.0875V23.8337H6.30868C6.15267 23.8337 6.02883 23.8796 5.93716 23.9712C5.84549 24.0629 5.79966 24.1851 5.79966 24.3379C5.79966 24.4601 5.83021 24.5671 5.89133 24.6587C5.95244 24.7504 6.0441 24.8115 6.16633 24.8421L14.4269 27.2254ZM33.1198 28.1068L27.507 26.7741C27.4694 26.8117 27.4317 26.8587 27.3941 26.9151C27.3565 26.9715 27.3189 27.0185 27.2813 27.0561L36.4272 36.2082C36.521 36.3025 36.6443 36.3497 36.7971 36.3497C36.9498 36.3497 37.0721 36.3042 37.1637 36.2131C37.2554 36.122 37.3089 36.0234 37.3241 35.9171C37.3394 35.8108 37.3165 35.697 37.2554 35.5755L33.1198 28.1068ZM13.2917 37.5837H7.79167C7.40208 37.5837 7.07552 37.4518 6.81198 37.1882C6.54844 36.9245 6.41667 36.5978 6.41667 36.2081C6.41667 35.8183 6.54844 35.4918 6.81198 35.2286C7.07552 34.9653 7.40208 34.8337 7.79167 34.8337H13.2917C13.6812 34.8337 14.0078 34.9655 14.2713 35.2292C14.5349 35.4928 14.6666 35.8195 14.6666 36.2093C14.6666 36.5991 14.5349 36.9255 14.2713 37.1888C14.0078 37.452 13.6812 37.5837 13.2917 37.5837ZM9.625 16.5004H4.125C3.73542 16.5004 3.40885 16.3685 3.14531 16.1049C2.88177 15.8413 2.75 15.5146 2.75 15.1248C2.75 14.7351 2.88177 14.4086 3.14531 14.1453C3.40885 13.8821 3.73542 13.7504 4.125 13.7504H9.625C10.0146 13.7504 10.3411 13.8823 10.6046 14.1459C10.8682 14.4096 11 14.7363 11 15.126C11 15.5158 10.8682 15.8423 10.6046 16.1055C10.3411 16.3688 10.0146 16.5004 9.625 16.5004ZM16.9583 9.16705H9.625C9.23542 9.16705 8.90885 9.03522 8.64531 8.77155C8.38177 8.50792 8.25 8.18122 8.25 7.79145C8.25 7.40172 8.38177 7.07523 8.64531 6.812C8.90885 6.54873 9.23542 6.41709 9.625 6.41709H16.9583C17.3479 6.41709 17.6744 6.54893 17.938 6.81259C18.2015 7.07625 18.3333 7.40295 18.3333 7.79269C18.3333 8.18246 18.2015 8.50896 17.938 8.7722C17.6744 9.03543 17.3479 9.16705 16.9583 9.16705Z" fill="#202629"/>
</svg>
