<svg width="48" height="48" viewBox="0 0 48 48" fill="none" xmlns="http://www.w3.org/2000/svg">
<path d="M24 11.7385C25.146 10.2128 26.496 9.04167 28.05 8.225C29.604 7.40833 31.254 7 33 7C35.7153 7 38.0147 7.88533 39.898 9.656C41.7813 11.4263 42.805 13.6692 42.969 16.3845C42.969 16.4745 42.9658 16.5578 42.9595 16.6345C42.9532 16.7115 42.9435 16.7948 42.9305 16.8845C42.9512 17.3102 42.8178 17.6667 42.5305 17.954C42.2435 18.241 41.8872 18.3948 41.4615 18.4155C41.0358 18.4358 40.6795 18.3025 40.3925 18.0155C40.1052 17.7282 39.9513 17.3717 39.931 16.946C39.9437 16.8563 39.9532 16.773 39.9595 16.696C39.9658 16.6193 39.969 16.536 39.969 16.446C39.846 14.5693 39.13 13.0258 37.821 11.8155C36.512 10.6052 34.905 10 33 10C31.6027 10 30.2963 10.3558 29.081 11.0675C27.8653 11.7788 26.828 12.7897 25.969 14.1C25.7203 14.464 25.4158 14.7403 25.0555 14.929C24.6955 15.1173 24.327 15.2115 23.95 15.2115C23.573 15.2115 23.2128 15.1173 22.8695 14.929C22.5258 14.7403 22.2398 14.464 22.0115 14.1C21.1525 12.7897 20.1185 11.7788 18.9095 11.0675C17.7005 10.3558 16.3973 10 15 10C13.095 10 11.488 10.6052 10.179 11.8155C8.87 13.0258 8.154 14.5693 8.031 16.446C8.031 16.536 8.03417 16.6193 8.0405 16.696C8.04683 16.773 8.05633 16.8563 8.069 16.946C8.04867 17.3717 7.89483 17.7282 7.6075 18.0155C7.3205 18.3025 6.96417 18.4358 6.5385 18.4155C6.11283 18.3948 5.7565 18.241 5.4695 17.954C5.18217 17.6667 5.04883 17.3102 5.0695 16.8845C5.0565 16.7948 5.04683 16.7115 5.0405 16.6345C5.03417 16.5578 5.031 16.4745 5.031 16.3845C5.195 13.6692 6.21867 11.4263 8.102 9.656C9.98533 7.88533 12.2847 7 15 7C16.746 7 18.396 7.40833 19.95 8.225C21.504 9.04167 22.854 10.2128 24 11.7385ZM24 40.2155C23.5847 40.2155 23.1788 40.1353 22.7825 39.975C22.3865 39.8147 22.0243 39.5768 21.696 39.2615C20.609 38.3025 19.3898 37.1743 18.0385 35.877C16.6872 34.5793 15.4847 33.4267 14.431 32.419C14.0797 32.0677 13.9225 31.701 13.9595 31.319C13.9968 30.937 14.154 30.6075 14.431 30.3305C14.7077 30.0538 15.037 29.8968 15.419 29.8595C15.8013 29.8225 16.168 29.9693 16.519 30.3C17.532 31.2923 18.6527 32.366 19.881 33.521C21.109 34.6763 22.482 35.936 24 37.3C25.518 35.936 26.891 34.6797 28.119 33.531C29.3473 32.382 30.468 31.305 31.481 30.3C31.832 29.9487 32.1987 29.8018 32.581 29.8595C32.963 29.9172 33.2923 30.0845 33.569 30.3615C33.846 30.6385 33.998 30.9763 34.025 31.375C34.052 31.7737 33.8898 32.1487 33.5385 32.5C32.4845 33.487 31.2787 34.621 29.921 35.902C28.5633 37.1827 27.364 38.3025 26.323 39.2615C25.9947 39.5898 25.6325 39.8308 25.2365 39.9845C24.8405 40.1385 24.4283 40.2155 24 40.2155ZM22.1 31.5C22.418 31.5 22.6905 31.407 22.9175 31.221C23.1442 31.0353 23.3113 30.7937 23.419 30.496L26.446 21.3845L28.6575 24.696C28.8242 24.937 29.0383 25.1313 29.3 25.279C29.5617 25.4263 29.8463 25.5 30.154 25.5H44C44.4257 25.5 44.782 25.3563 45.069 25.069C45.3563 24.782 45.5 24.4257 45.5 24C45.5 23.5743 45.3563 23.218 45.069 22.931C44.782 22.6437 44.4257 22.5 44 22.5H30.823L27.2575 17.1885C27.1088 16.9655 26.9147 16.7982 26.675 16.6865C26.4353 16.5752 26.177 16.5195 25.9 16.5195C25.582 16.5195 25.3063 16.6123 25.073 16.798C24.8397 16.984 24.6757 17.2257 24.581 17.523L21.554 26.623L19.3345 23.304C19.1678 23.063 18.9538 22.8687 18.6925 22.721C18.4308 22.5737 18.1462 22.5 17.8385 22.5H4C3.57433 22.5 3.218 22.6437 2.931 22.931C2.64367 23.218 2.5 23.5743 2.5 24C2.5 24.4257 2.64367 24.782 2.931 25.069C3.218 25.3563 3.57433 25.5 4 25.5H17.1385L20.723 30.8305C20.8717 31.0665 21.0692 31.2372 21.3155 31.3425C21.5615 31.4475 21.823 31.5 22.1 31.5Z" fill="#202629"/>
</svg>
