<svg width="48" height="48" viewBox="0 0 48 48" fill="none" xmlns="http://www.w3.org/2000/svg">
<path d="M23.9769 41.019C20.3489 41.019 17.2727 39.7408 14.7484 37.1845C12.2241 34.6281 10.9619 31.5198 10.9619 27.8595C10.9619 25.4505 11.3581 23.0133 12.1504 20.548C12.9427 18.0826 13.9691 15.843 15.2294 13.829C16.4897 11.815 17.8926 10.1701 19.4379 8.89446C20.9832 7.61879 22.4977 6.98096 23.9814 6.98096C25.4864 6.98096 27.0076 7.61512 28.5449 8.88346C30.0822 10.1518 31.4799 11.7926 32.7379 13.806C33.9956 15.8196 35.0204 18.0631 35.8124 20.5365C36.6044 23.0095 37.0004 25.4505 37.0004 27.8595C37.0004 31.5198 35.7367 34.6281 33.2094 37.1845C30.6824 39.7408 27.6049 41.019 23.9769 41.019ZM23.9814 38.019C26.7607 38.019 29.1254 37.0313 31.0754 35.056C33.0254 33.0803 34.0004 30.6863 34.0004 27.874C34.0004 25.9426 33.6786 23.9301 33.0349 21.8365C32.3912 19.7428 31.5777 17.8171 30.5944 16.0595C29.6111 14.3018 28.5317 12.8493 27.3564 11.702C26.1811 10.5546 25.0561 9.98096 23.9814 9.98096C22.9224 9.98096 21.8012 10.5546 20.6179 11.702C19.4346 12.8493 18.3512 14.305 17.3679 16.069C16.3846 17.8333 15.5711 19.7623 14.9274 21.856C14.2837 23.9493 13.9619 25.9525 13.9619 27.8655C13.9619 30.6835 14.9369 33.0803 16.8869 35.056C18.8369 37.0313 21.2017 38.019 23.9814 38.019ZM26.0004 35.019C26.4254 35.019 26.7816 34.8751 27.0689 34.5875C27.3566 34.3001 27.5004 33.9438 27.5004 33.5185C27.5004 33.0931 27.3566 32.737 27.0689 32.45C26.7816 32.1626 26.4254 32.019 26.0004 32.019C24.1947 32.019 22.6601 31.3871 21.3964 30.1235C20.1324 28.8595 19.5004 27.3246 19.5004 25.519C19.5004 25.094 19.3566 24.7378 19.0689 24.4505C18.7812 24.1628 18.4249 24.019 17.9999 24.019C17.5746 24.019 17.2184 24.1628 16.9314 24.4505C16.6441 24.7378 16.5004 25.094 16.5004 25.519C16.5004 28.1473 17.4267 30.3878 19.2794 32.2405C21.1317 34.0928 23.3721 35.019 26.0004 35.019Z" fill="#202629"/>
</svg>
