<svg width="44" height="44" viewBox="0 0 44 44" fill="none" xmlns="http://www.w3.org/2000/svg">
<path d="M21.2594 13.3098V9.64318C21.2594 8.61652 21.6138 7.74875 22.3226 7.0399C23.0315 6.33101 23.8993 5.97656 24.9259 5.97656H28.5926V9.64318C28.5926 10.6698 28.2381 11.5376 27.5292 12.2465C26.8204 12.9553 25.9526 13.3098 24.9259 13.3098H21.2594ZM11.7334 23.393C10.2125 23.393 8.91675 22.8577 7.84614 21.7871C6.77554 20.7165 6.24023 19.4208 6.24023 17.8999V12.3932H11.7469C13.2678 12.3932 14.5636 12.9285 15.6342 13.9991C16.7048 15.0697 17.2401 16.3654 17.2401 17.8863V23.393H11.7334ZM29.333 38.9587C28.1913 38.9587 27.1009 38.7754 26.0617 38.4087C25.0225 38.042 24.0833 37.5379 23.2442 36.8962L21.1323 39.008C20.8824 39.2619 20.5643 39.3888 20.1781 39.3888C19.7918 39.3888 19.4659 39.2619 19.2003 39.008C18.9465 38.7425 18.8196 38.4166 18.8196 38.0303C18.8196 37.6441 18.9465 37.326 19.2003 37.0761L21.3122 34.9642C20.6705 34.1251 20.1664 33.1859 19.7997 32.1467C19.433 31.1075 19.2497 30.0171 19.2497 28.8754C19.2497 26.0783 20.231 23.6938 22.1936 21.7219C24.1562 19.7499 26.537 18.7733 29.336 18.7921H39.3704V28.8712C39.408 31.671 38.4426 34.0522 36.4741 36.0148C34.5055 37.9774 32.1252 38.9587 29.333 38.9587ZM29.333 36.2087C31.3802 36.2087 33.1219 35.4907 34.558 34.0546C35.9941 32.6185 36.6816 30.8921 36.6205 28.8754V21.5421H29.333C27.3163 21.5115 25.5899 22.2143 24.1538 23.6504C22.7177 25.0865 21.9997 26.8282 21.9997 28.8754C21.9997 29.6487 22.1101 30.3838 22.3311 31.0807C22.552 31.7776 22.8658 32.4187 23.2725 33.004L28.367 27.9094C28.6326 27.6438 28.9585 27.511 29.3447 27.511C29.731 27.511 30.0491 27.6438 30.299 27.9094C30.5646 28.1593 30.6974 28.4774 30.6974 28.8637C30.6974 29.2499 30.5646 29.5758 30.299 29.8414L25.2044 34.9359C25.7897 35.3426 26.4294 35.6564 27.1236 35.8773C27.8177 36.0983 28.5542 36.2087 29.333 36.2087Z" fill="black"/>
</svg>
